<svg id="Layer_1" data-name="Layer 1" xmlns="http://www.w3.org/2000/svg" viewBox="0 0 1000 1000"><defs><style>.cls-1{fill:#abb2ac;}.cls-2{fill:#fff;}.cls-3{fill:#010101;}.cls-4{fill:#231f20;}</style></defs><title>1</title><path class="cls-1" d="M299.1,427l402.4.72c5.63,0,10.65-.84,10.65,11.22l-.49,132.51H288.94v-133C288.94,432.5,289.52,427,299.1,427Z"/><path class="cls-2" d="M409.55,494.8a48.4,48.4,0,1,1-96.8.06v-.06a48.4,48.4,0,0,1,96.8-.06Z"/><path class="cls-2" d="M511.93,440.37a38.12,38.12,0,1,1-38.13,38.12A38.12,38.12,0,0,1,511.93,440.37Z"/><path class="cls-3" d="M523,468.3a2.66,2.66,0,0,0-2.66-2.66H503.46a2.67,2.67,0,0,0-2.66,2.66v16.83h4.7v19.95h12.76V485.13H523V468.3Z"/><path class="cls-3" d="M511.88,451.91a5.76,5.76,0,1,1-5.76,5.76A5.76,5.76,0,0,1,511.88,451.91Z"/><path class="cls-3" d="M511.83,437.33a39.25,39.25,0,0,0-29,11.94,40.26,40.26,0,0,0-12.15,29.22,41.47,41.47,0,0,0,41.11,41.16A40.62,40.62,0,0,0,541.3,507.4q11.75-11.62,11.75-28.91a40.79,40.79,0,0,0-41.22-41.16Zm.1,7.41a33.75,33.75,0,0,1,33.7,33.75q0,14.2-9.69,23.57a33,33,0,0,1-24,10.08,34.12,34.12,0,0,1-33.8-33.65q0-13.69,10.1-23.87A31.91,31.91,0,0,1,511.93,444.74Z"/><path class="cls-3" d="M705,425.45H295a8,8,0,0,0-8,8V572.75a1.8,1.8,0,0,0,1.8,1.8H711.2a1.8,1.8,0,0,0,1.8-1.8V433.43A8,8,0,0,0,705,425.45Zm-410,3.6H705a4.37,4.37,0,0,1,4.36,4.38V530H416.32a63,63,0,0,1-110.38,0H290.6V433.43A4.39,4.39,0,0,1,295,429.05Z"/><path class="cls-3" d="M400.5,455.38q16.1,16.1,16.1,39.42t-15.82,39q-16.8,16.53-39.7,16.52-22.62,0-39-16.38T305.7,494.8q0-22.77,16.38-39.42,16-16.11,39-16.1Q384.41,439.28,400.5,455.38Zm-71.19,7.22q-13.62,13.74-13.62,32.21t13.48,31.94q13.47,13.47,32.08,13.47t32.35-13.61q13.06-12.63,13.06-31.8a45.29,45.29,0,0,0-45.41-45.54A43,43,0,0,0,329.31,462.6Z"/><path class="cls-3" d="M385.46,489.4q-2.08-4.54-6.1-4.54-7.49,0-7.49,9.88t7.49,9.89c3.24,0,5.5-1.61,6.8-4.82l6.93,3.61Q388.25,512,378.56,512c-5,0-9-1.53-12-4.59s-4.49-7.28-4.49-12.65,1.52-9.47,4.57-12.58a15.54,15.54,0,0,1,11.62-4.66q10.23,0,14.66,8.08Z"/><path class="cls-4" d="M352.19,509a10.51,10.51,0,0,1-7.42,3,13.18,13.18,0,0,1-6-1.41,16.41,16.41,0,0,1-5-3.81,18.47,18.47,0,0,1-3.38-5.58,18.28,18.28,0,0,1-1.24-6.73,17.35,17.35,0,0,1,1.27-6.68,16.3,16.3,0,0,1,8.74-8.95,15.92,15.92,0,0,1,6.46-1.32,16.32,16.32,0,0,1,4.12.51,14.05,14.05,0,0,1,3.64,1.48,14.3,14.3,0,0,1,3,2.35,12.64,12.64,0,0,1,2.18,3.08l-6.94,5.32a7.48,7.48,0,0,0-2.61-3.23,6.81,6.81,0,0,0-3.71-1.22,6.31,6.31,0,0,0-5.14,2.54,7.62,7.62,0,0,0-1.39,2.84,12.28,12.28,0,0,0-.51,3.62,10.94,10.94,0,0,0,.51,3.64,8.74,8.74,0,0,0,4,4.62,6,6,0,0,0,2.81.64,6.88,6.88,0,0,0,3.32-.86,10.26,10.26,0,0,0,3-2.49h-6v-6.7h14V512h-7.71Z"/><polygon class="cls-2" points="494.5 541.71 504.32 557.47 504.37 557.47 504.37 541.71 509.22 541.71 509.22 565.21 504.05 565.21 494.27 549.47 494.2 549.47 494.2 565.21 489.35 565.21 489.35 541.71 494.5 541.71"/><path class="cls-2" d="M525.61,541.71l8.8,23.5H529L527.26,560h-8.79l-1.85,5.23h-5.2l8.89-23.5Zm.3,14.41-3-8.62h-.07l-3.06,8.62Z"/><path class="cls-2" d="M607.7,541.71l-6.9,11.06-6.89-11.06h-5.14v23.5h4.85V549.47h.06l5.16,8.3h3.93l5.16-8.3H608v15.74h4.85v-23.5Z"/><path class="cls-2" d="M631.18,548.24a5,5,0,0,0-2.59-2.07,4.93,4.93,0,0,0-1.75-.31,5.75,5.75,0,0,0-2.83.65,5.24,5.24,0,0,0-1.89,1.73,7.8,7.8,0,0,0-1.06,2.46,12.38,12.38,0,0,0-.32,2.87,11.29,11.29,0,0,0,.32,2.74,7.62,7.62,0,0,0,1.06,2.41,5.37,5.37,0,0,0,1.89,1.71,5.75,5.75,0,0,0,2.83.65,4.55,4.55,0,0,0,3.54-1.39,6.36,6.36,0,0,0,1.55-3.64h4.78a11.36,11.36,0,0,1-1,3.8,8.89,8.89,0,0,1-2.08,2.9,8.79,8.79,0,0,1-3,1.83,11.12,11.12,0,0,1-3.81.63,11.47,11.47,0,0,1-4.64-.9,9.84,9.84,0,0,1-3.48-2.47,10.72,10.72,0,0,1-2.17-3.69,13.42,13.42,0,0,1-.76-4.58,13.82,13.82,0,0,1,.76-4.67,10.94,10.94,0,0,1,2.17-3.76,10,10,0,0,1,3.48-2.52,12.11,12.11,0,0,1,8.15-.38,9.58,9.58,0,0,1,2.95,1.56,8.54,8.54,0,0,1,2.16,2.53,9.29,9.29,0,0,1,1.07,3.47h-4.79A3.85,3.85,0,0,0,631.18,548.24Z"/><rect class="cls-3" x="507.78" y="439.89" width="8.21" height="77.21" transform="translate(1177.03 258.13) rotate(118.6)"/><path class="cls-2" d="M648.1,478.49a35.36,35.36,0,0,1-70.72.05v-.05a35.36,35.36,0,0,1,70.72-.05Z"/><path class="cls-3" d="M642,449.26a39.85,39.85,0,0,0-29.26-11.93,39.27,39.27,0,0,0-29,11.93,40.31,40.31,0,0,0-12.16,29.23,41.49,41.49,0,0,0,41.12,41.16,40.67,40.67,0,0,0,29.47-12.24q11.75-11.62,11.75-28.92A39.74,39.74,0,0,0,642,449.26Zm.34,45.53a32.37,32.37,0,0,1-2.94,4.46,34,34,0,0,1-26.61,12.89h-.46l-1.27,0h0a32.06,32.06,0,0,1-13.57-3.65A33.84,33.84,0,0,1,584,496a31.83,31.83,0,0,1-5-17.52,33.16,33.16,0,0,1,1.84-11.06,74.23,74.23,0,0,1,3.68-7.25l.12-.17a33.58,33.58,0,0,1,6.2-7,31.79,31.79,0,0,1,22-8.23,32.21,32.21,0,0,1,23.8,9.88A34.07,34.07,0,0,1,642.29,494.79Z"/><rect class="cls-3" x="591.59" y="469.99" width="42.3" height="6.86"/><rect class="cls-3" x="590.45" y="475.06" width="42.3" height="6.86" transform="translate(1382.41 384.37) rotate(135)"/><rect class="cls-3" x="591.59" y="481.05" width="42.3" height="6.86"/></svg>