<svg id="Layer_1" data-name="Layer 1" xmlns="http://www.w3.org/2000/svg" viewBox="0 0 1000 1000">
  <defs>
    <style>
      .cls-1 {
        fill: #abb2ac;
      }
      .cls-2 {
        fill: #010101;
      }
      .cls-3 {
        fill: #fff;
      }
      .cls-4 {
        fill: #231f20;
      }
    </style>
  </defs>
  <title>Gossiping Commons NA NC NE</title>
  <path class="cls-1" d="M299.1,427l402.41.72c5.62,0,10.64-.84,10.64,11.22l-.49,132.52H289v-133C289,432.53,289.52,427,299.1,427Z"/>
  <path
    class="cls-2"
    d="M705,425.45H295a8,8,0,0,0-8,8V572.75a1.8,1.8,0,0,0,1.8,1.8H711.2a1.79,1.79,0,0,0,1.8-1.8V433.43A8,8,0,0,0,705,425.45Zm-410,3.6H705a4.37,4.37,0,0,1,4.36,4.38V530H416.32A63,63,0,0,1,306,530H290.6V433.43A4.39,4.39,0,0,1,295,429.05Z"/>
  <path class="cls-3" d="M409.56,494.83a48.41,48.41,0,0,1-96.81.06v-.06a48.41,48.41,0,0,1,96.81-.05Z"/>
  <path
    class="cls-2"
    d="M400.5,455.41q16.1,16.11,16.1,39.42t-15.82,39q-16.8,16.51-39.7,16.52-22.62,0-39-16.38T305.7,494.83q0-22.75,16.38-39.42,16-16.1,39-16.1Q384.41,439.31,400.5,455.41Zm-71.19,7.22q-13.62,13.75-13.62,32.22t13.48,31.93q13.47,13.47,32.08,13.47t32.36-13.6q13-12.64,13.05-31.8a45.29,45.29,0,0,0-45.41-45.55A43,43,0,0,0,329.31,462.63Z"/>
  <polygon class="cls-3" points="544.44 541.71 554.26 557.47 554.31 557.47 554.31 541.71 559.16 541.71 559.16 565.21 553.99 565.21 544.21 549.47 544.14 549.47 544.14 565.21 539.29 565.21 539.29 541.71 544.44 541.71"/>
  <path
    class="cls-3"
    d="M578.79,548a5.31,5.31,0,0,0-1.15-1.31,5.37,5.37,0,0,0-3.39-1.18,6.06,6.06,0,0,0-3,.67,5.53,5.53,0,0,0-2,1.81,7.84,7.84,0,0,0-1.11,2.59,12.81,12.81,0,0,0-.34,3,12,12,0,0,0,.34,2.88,7.75,7.75,0,0,0,1.11,2.52,5.66,5.66,0,0,0,2,1.79,6.06,6.06,0,0,0,3,.68A4.76,4.76,0,0,0,578,560a6.73,6.73,0,0,0,1.63-3.82h5a12.07,12.07,0,0,1-1,4,9.64,9.64,0,0,1-2.18,3,9.13,9.13,0,0,1-3.16,1.91,11.31,11.31,0,0,1-4,.66,12.09,12.09,0,0,1-4.87-.94,10.61,10.61,0,0,1-3.64-2.58,11.5,11.5,0,0,1-2.27-3.87,14.14,14.14,0,0,1-.8-4.8,14.67,14.67,0,0,1,.8-4.89,11.82,11.82,0,0,1,2.27-3.94,10.74,10.74,0,0,1,3.64-2.63,12.6,12.6,0,0,1,8.54-.4,10,10,0,0,1,3.09,1.64,8.66,8.66,0,0,1,2.26,2.65,9.48,9.48,0,0,1,1.12,3.63h-5A4,4,0,0,0,578.79,548Z"/>
  <path class="cls-3" d="M598.69,478.63a35.36,35.36,0,0,1-70.71.05v-.05a35.36,35.36,0,1,1,70.71-.05Z"/>
  <path
    class="cls-2"
    d="M563.28,437.47a40.79,40.79,0,0,1,41.22,41.16q0,17.3-11.74,28.92-12.48,12.26-29.48,12.25a41.51,41.51,0,0,1-41.11-41.17,40.23,40.23,0,0,1,12.16-29.22A39.23,39.23,0,0,1,563.28,437.47Zm-31.85,30.1a32.91,32.91,0,0,0-1.84,11.06,34.1,34.1,0,0,0,33.8,33.65,33,33,0,0,0,24-10.08A31.64,31.64,0,0,0,593,495l-15.52-6.91c-1,5.22-5.71,8.74-11.33,9.16v6.35h-4.72v-6.35a19.53,19.53,0,0,1-12.5-4.93l5.67-5.72a12.41,12.41,0,0,0,9.19,3.73c2.41,0,5.09-.95,5.09-4.09a3.09,3.09,0,0,0-1.11-2.48L563.87,482,559,479.84l-6.52-2.9Zm32-22.69a31.88,31.88,0,0,0-23.7,9.88,37.5,37.5,0,0,0-4.59,5.56l15.74,7c1.42-4.37,5.57-7,10.61-7.31v-6.35h4.72V460a17.68,17.68,0,0,1,10.34,3.77l-5.41,5.56a12.51,12.51,0,0,0-7-2.41c-2.05,0-4.94.63-4.94,3.2a1.71,1.71,0,0,0,.37,1l5.27,2.34,3.56,1.59,6.61,2.94,21.1,9.39a36.24,36.24,0,0,0,1-8.81,33.75,33.75,0,0,0-33.69-33.75Z"/>
  <path class="cls-3" d="M694.07,478.63a37.58,37.58,0,1,1-75.15.05v-.05a37.58,37.58,0,1,1,75.15-.05Z"/>
  <path
    class="cls-2"
    d="M655.91,437.47a39.25,39.25,0,0,0-29,11.94,40.27,40.27,0,0,0-12.16,29.22,41.51,41.51,0,0,0,41.12,41.17q17,0,29.47-12.25,11.75-11.62,11.75-28.92a40.79,40.79,0,0,0-41.22-41.16Zm.1,7.4a33.75,33.75,0,0,1,33.69,33.76q0,14.21-9.68,23.57a33.06,33.06,0,0,1-24,10.08,34.12,34.12,0,0,1-33.8-33.65q0-13.69,10.1-23.87A31.92,31.92,0,0,1,656,444.87Z"/>
  <path class="cls-2" d="M671.51,468.88H641.59V476h29.92Zm0,13.23H641.59v7.08h29.92Z"/>
  <path class="cls-2" d="M385.46,489.43c-1.38-3-3.42-4.53-6.1-4.53q-7.49,0-7.49,9.88t7.49,9.88q4.86,0,6.8-4.82l6.93,3.61q-4.83,8.61-14.53,8.62-7.47,0-12-4.59t-4.5-12.65q0-7.92,4.57-12.58a15.57,15.57,0,0,1,11.62-4.65q10.23,0,14.66,8.07Z"/>
  <path
    class="cls-4"
    d="M352.19,509.05a10.45,10.45,0,0,1-7.42,3,13.21,13.21,0,0,1-6-1.41,16.26,16.26,0,0,1-5-3.81,18.68,18.68,0,0,1-4.62-12.3,17.31,17.31,0,0,1,1.27-6.68,16.48,16.48,0,0,1,3.5-5.36,16.25,16.25,0,0,1,5.24-3.59,15.92,15.92,0,0,1,6.46-1.32,16.79,16.79,0,0,1,4.12.5,14.08,14.08,0,0,1,3.64,1.49,13.69,13.69,0,0,1,3,2.34,12.24,12.24,0,0,1,2.18,3.09l-6.94,5.31a7.53,7.53,0,0,0-2.61-3.23,6.89,6.89,0,0,0-3.71-1.22,6.35,6.35,0,0,0-5.14,2.54,7.9,7.9,0,0,0-1.39,2.85,12.17,12.17,0,0,0-.5,3.61,11,11,0,0,0,.5,3.64,8.72,8.72,0,0,0,4,4.62,5.81,5.81,0,0,0,2.8.65,7,7,0,0,0,3.33-.86,10.87,10.87,0,0,0,3-2.49h-6v-6.71h14v18.34h-7.71Z"/><path class="cls-3" d="M470.81,440.51a38.13,38.13,0,1,1-38.13,38.12A38.12,38.12,0,0,1,470.81,440.51Z"/>
  <path class="cls-2" d="M481.84,468.44a2.66,2.66,0,0,0-2.66-2.66H462.34a2.67,2.67,0,0,0-2.66,2.66v16.84h4.7v19.94h12.76V485.28h4.7V468.44Z"/>
  <path class="cls-2" d="M470.76,452.05a5.76,5.76,0,1,1-5.76,5.76A5.76,5.76,0,0,1,470.76,452.05Z"/>
  <path
    class="cls-2"
    d="M470.71,437.47a39.25,39.25,0,0,0-29,11.94,40.26,40.26,0,0,0-12.15,29.22,41.49,41.49,0,0,0,41.11,41.17,40.62,40.62,0,0,0,29.47-12.25q11.76-11.62,11.75-28.92a40.79,40.79,0,0,0-41.22-41.16Zm.1,7.41a33.75,33.75,0,0,1,33.7,33.75q0,14.21-9.69,23.57a33,33,0,0,1-24,10.08A34.12,34.12,0,0,1,437,478.63q0-13.69,10.1-23.87A31.91,31.91,0,0,1,470.81,444.88Z"/>
  <polygon class="cls-3" points="453.38 541.71 463.2 557.47 463.25 557.47 463.25 541.71 468.1 541.71 468.1 565.21 462.93 565.21 453.15 549.47 453.08 549.47 453.08 565.21 448.23 565.21 448.23 541.71 453.38 541.71"/>
  <path class="cls-3" d="M484.49,541.71l8.8,23.5h-5.37L486.14,560h-8.79l-1.85,5.23h-5.2l8.89-23.5Zm.3,14.41-3-8.62h-.07l-3.06,8.62Z"/>
  <polygon class="cls-3" points="650.41 557.47 650.36 557.47 640.53 541.71 635.39 541.71 635.39 565.21 640.24 565.21 640.24 549.47 640.31 549.47 650.09 565.21 655.26 565.21 655.26 541.71 650.41 541.71 650.41 557.47"/>
  <polygon
    class="cls-3"
    points="676.53 545.74 676.53 541.71 664.64 541.71 659.79 541.71 659.79 546.55 659.79 551.03 659.79 555.88 659.79 560.36 659.79 565.21 664.64 565.21 676.53 565.21 676.53 561.18 664.64 561.18 664.64 555.47 676.53 555.47 676.53 551.44 664.64 551.44 664.64 545.74 676.53 545.74"/>
  <rect class="cls-2" x="495.9" y="461.4" width="8.21" height="77.21" transform="translate(1150 280) rotate(118.6)"></rect>
</svg>
