<svg id="Layer_1" data-name="Layer 1" xmlns="http://www.w3.org/2000/svg" viewBox="0 0 1000 1000"><defs><style>.cls-1{fill:#abb2ac;}.cls-2{fill:#fff;}.cls-3{fill:#010101;}.cls-4{fill:#231f20;}</style></defs><title>2</title><path class="cls-1" d="M299.1,427.14l402.4.72c5.63,0,10.65-.84,10.65,11.22l-.49,132.52H288.94v-133C288.94,432.64,289.52,427.14,299.1,427.14Z"/><path class="cls-2" d="M409.55,494.94a48.4,48.4,0,1,1-96.8.06v-.06a48.4,48.4,0,0,1,96.8-.06Z"/><path class="cls-3" d="M400.5,455.52q16.1,16.1,16.1,39.42t-15.83,39Q384,550.47,361.08,550.47q-22.62,0-39-16.38T305.7,494.94q0-22.76,16.38-39.42,16-16.11,39-16.1Q384.41,439.42,400.5,455.52Zm-71.2,7.22Q315.7,476.48,315.69,495t13.47,31.93q13.48,13.47,32.09,13.47t32.35-13.61q13-12.63,13.06-31.79a45.29,45.29,0,0,0-45.41-45.55A43,43,0,0,0,329.3,462.74Z"/><path class="cls-3" d="M705,425.45H295a8,8,0,0,0-8,8V572.75a1.81,1.81,0,0,0,1.8,1.8H711.2a1.81,1.81,0,0,0,1.8-1.8V433.43A8,8,0,0,0,705,425.45Zm-410,3.6H705a4.37,4.37,0,0,1,4.36,4.38v96.72H416.32a63,63,0,0,1-110.38,0H290.6V433.43A4.39,4.39,0,0,1,295,429.05Z"/><path class="cls-2" d="M650.53,478.63a37.58,37.58,0,0,1-75.16.06v-.06a37.58,37.58,0,0,1,75.16-.05Z"/><path class="cls-3" d="M612.68,437.47a39.23,39.23,0,0,0-28.95,11.94,40.22,40.22,0,0,0-12.15,29.22,41.49,41.49,0,0,0,41.1,41.17q17,0,29.48-12.25,11.75-11.62,11.74-28.92a40.79,40.79,0,0,0-41.22-41.16Zm.11,7.41a33.73,33.73,0,0,1,33.69,33.75q0,14.21-9.68,23.57a33,33,0,0,1-24,10.08A34.12,34.12,0,0,1,579,478.63q0-13.68,10.1-23.87A31.91,31.91,0,0,1,612.79,444.88Z"/><path class="cls-3" d="M594.44,472.82c1.64-10.35,8.93-15.89,18.07-15.89,13.14,0,21.15,9.53,21.15,22.25,0,12.41-8.52,22.05-21.36,22.05-8.83,0-16.73-5.44-18.17-16.1H604.5c.31,5.53,3.9,7.48,9,7.48,5.85,0,9.65-5.43,9.65-13.74,0-8.71-3.29-13.33-9.45-13.33-4.52,0-8.42,1.64-9.24,7.28h3L599.35,481l-8.16-8.16Z"/><path class="cls-2" d="M511.93,441.35a38.12,38.12,0,1,1-38.13,38.12A38.12,38.12,0,0,1,511.93,441.35Z"/><path class="cls-3" d="M385.46,489.54q-2.08-4.53-6.1-4.53-7.49,0-7.49,9.88t7.49,9.88q4.86,0,6.79-4.82l6.94,3.61q-4.84,8.61-14.53,8.62-7.47,0-12-4.59t-4.49-12.65q0-7.92,4.56-12.58a15.6,15.6,0,0,1,11.62-4.65q10.25,0,14.67,8.07Z"/><path class="cls-4" d="M352.19,509.16a10.51,10.51,0,0,1-7.42,3,13.26,13.26,0,0,1-6-1.41,16.34,16.34,0,0,1-4.95-3.81,18.54,18.54,0,0,1-4.62-12.3,17.31,17.31,0,0,1,1.27-6.68,16.3,16.3,0,0,1,8.73-9,16.16,16.16,0,0,1,6.47-1.31,16.37,16.37,0,0,1,4.12.5,13.86,13.86,0,0,1,6.63,3.83,12.5,12.5,0,0,1,2.18,3.09l-6.95,5.31a7.34,7.34,0,0,0-2.61-3.23,6.84,6.84,0,0,0-3.71-1.22,6.36,6.36,0,0,0-5.14,2.54,7.91,7.91,0,0,0-1.39,2.85,12.5,12.5,0,0,0-.5,3.61,11,11,0,0,0,.5,3.64,8.81,8.81,0,0,0,4,4.62,6,6,0,0,0,2.8.65,6.9,6.9,0,0,0,3.33-.87,10.38,10.38,0,0,0,3-2.48h-6v-6.71h14v18.34h-7.71Z"/><polygon class="cls-2" points="494.5 541.71 504.32 557.47 504.37 557.47 504.37 541.71 509.22 541.71 509.22 565.21 504.05 565.21 494.27 549.47 494.2 549.47 494.2 565.21 489.35 565.21 489.35 541.71 494.5 541.71"/><path class="cls-2" d="M525.61,541.71l8.8,23.5H529L527.26,560h-8.79l-1.85,5.23h-5.2l8.89-23.5Zm.3,14.41-3-8.62h-.07l-3.06,8.62Z"/><path class="cls-2" d="M602,541.71a12,12,0,0,1,4.24.72,9.26,9.26,0,0,1,3.4,2.17,10.06,10.06,0,0,1,2.24,3.62,14.62,14.62,0,0,1,.8,5.11,16.26,16.26,0,0,1-.65,4.74,10.39,10.39,0,0,1-2,3.75,9.47,9.47,0,0,1-3.33,2.49,11.33,11.33,0,0,1-4.7.9H591.82v-23.5Zm-.36,19.15a6.67,6.67,0,0,0,2.17-.36,5,5,0,0,0,1.88-1.2,6.13,6.13,0,0,0,1.32-2.19,9.59,9.59,0,0,0,.49-3.29,13.75,13.75,0,0,0-.34-3.21,6.37,6.37,0,0,0-1.14-2.45,5,5,0,0,0-2.09-1.56,8.41,8.41,0,0,0-3.21-.54H597v14.8Z"/><rect class="cls-2" x="621.03" y="541.71" width="5.18" height="23.5"/><rect class="cls-2" x="621.45" y="533.84" width="4.35" height="20.08" transform="translate(1167.51 -79.74) rotate(90)"/><path class="cls-3" d="M523,468.44a2.66,2.66,0,0,0-2.66-2.66H503.46a2.67,2.67,0,0,0-2.66,2.66v16.84h4.7v19.93h12.76V485.28H523V468.44Z"/><path class="cls-3" d="M511.88,452.05a5.76,5.76,0,1,1-5.76,5.76A5.76,5.76,0,0,1,511.88,452.05Z"/><path class="cls-3" d="M511.83,437.47a39.25,39.25,0,0,0-29,11.94,40.26,40.26,0,0,0-12.15,29.22,41.47,41.47,0,0,0,41.11,41.16,40.62,40.62,0,0,0,29.47-12.25q11.75-11.61,11.75-28.91a40.79,40.79,0,0,0-41.22-41.16Zm.1,7.41a33.75,33.75,0,0,1,33.7,33.75q0,14.21-9.69,23.57a33,33,0,0,1-24,10.08,34.12,34.12,0,0,1-33.8-33.65q0-13.68,10.1-23.87A31.91,31.91,0,0,1,511.93,444.88Z"/><rect class="cls-3" x="508.17" y="440.03" width="7.42" height="77.21" transform="translate(488.37 -221.77) rotate(45)"/><rect class="cls-3" x="609.03" y="440.03" width="7.42" height="77.21" transform="translate(517.91 -293.08) rotate(45)"/></svg>